<?xml version="1.0" encoding="utf-8"?>
<!-- Generator: Adobe Illustrator 19.0.0, SVG Export Plug-In . SVG Version: 6.00 Build 0)  -->
<svg version="1.1" id="Layer_2" xmlns="http://www.w3.org/2000/svg" xmlns:xlink="http://www.w3.org/1999/xlink" x="0px" y="0px"
	 viewBox="0 0 1920 1080" style="enable-background:new 0 0 1920 1080;" xml:space="preserve">
<style type="text/css">
	.st0{fill:#FFFFFF;}
</style>
<g id="XMLID_1_">
	<path id="XMLID_17_" class="st0" d="M39.3,1077.5c-20.3,0-36.8-16.5-36.8-36.8V39.3C2.5,19,19,2.5,39.3,2.5h1841.3
		c20.3,0,36.8,16.5,36.8,36.8v1001.3c0,20.3-16.5,36.8-36.8,36.8H39.3z"/>
	<path id="XMLID_14_" d="M1880.7,5c18.9,0,34.3,15.4,34.3,34.3v1001.3c0,18.9-15.4,34.3-34.3,34.3H39.3c-18.9,0-34.3-15.4-34.3-34.3
		V39.3C5,20.4,20.4,5,39.3,5H1880.7 M1880.7,0H39.3C17.6,0,0,17.6,0,39.3v1001.3c0,21.7,17.6,39.3,39.3,39.3h1841.3
		c21.7,0,39.3-17.6,39.3-39.3V39.3C1920,17.6,1902.4,0,1880.7,0L1880.7,0z"/>
</g>
</svg>
